<?xml version="1.0" standalone="no"?>
<!DOCTYPE svg PUBLIC "-//W3C//DTD SVG 20010904//EN"
 "http://www.w3.org/TR/2001/REC-SVG-20010904/DTD/svg10.dtd">
<svg version="1.0" xmlns="http://www.w3.org/2000/svg"
 width="512.000000pt" height="512.000000pt" viewBox="0 0 512.000000 512.000000"
 preserveAspectRatio="xMidYMid meet">
<metadata>
Created by potrace 1.14, written by Peter Selinger 2001-2017
</metadata>
<g transform="translate(0.000000,512.000000) scale(0.100000,-0.100000)"
fill="#000000" stroke="none">
<path d="M1740 2561 l0 -1751 235 0 235 0 0 699 0 698 383 6 c397 6 503 14
648 48 211 49 354 124 485 254 179 178 258 379 271 690 19 465 -155 801 -502
969 -108 53 -194 80 -340 108 -103 20 -152 21 -762 25 l-653 4 0 -1750z m1300
1334 c233 -64 377 -202 436 -415 26 -92 26 -338 0 -429 -65 -237 -241 -389
-496 -430 -36 -6 -220 -11 -417 -11 l-353 0 0 656 0 655 383 -4 c329 -3 391
-6 447 -22z"/>
</g>
</svg>
